<svg width="32" height="32" viewBox="0 0 32 32" fill="none" xmlns="http://www.w3.org/2000/svg">
<path d="M15.9993 26.6666C15.9993 19.3333 9.99935 13.3333 2.66602 13.3333C2.66602 20.6666 8.66602 26.6666 15.9993 26.6666Z" stroke="black" stroke-width="2.66667" stroke-linecap="round" stroke-linejoin="round"/>
<path d="M12.9325 11.0667C10.5325 8.40002 7.86579 6.93335 7.86579 6.93335C7.86579 6.93335 6.79913 10.2667 7.19913 14.1334" stroke="black" stroke-width="2.66667" stroke-linecap="round" stroke-linejoin="round"/>
<path d="M20 17.1999V15.9999C20 10.1333 16 5.33325 16 5.33325C16 5.33325 12 10.1333 12 15.9999V17.1999" stroke="black" stroke-width="2.66667" stroke-linecap="round" stroke-linejoin="round"/>
<path d="M24.7997 14.1334C25.1997 10.2667 24.1331 6.93335 24.1331 6.93335C24.1331 6.93335 21.4664 8.26668 19.0664 11.0667" stroke="black" stroke-width="2.66667" stroke-linecap="round" stroke-linejoin="round"/>
<path d="M16 26.6666C23.3333 26.6666 29.3333 20.6666 29.3333 13.3333C22 13.3333 16 19.3333 16 26.6666Z" stroke="black" stroke-width="2.66667" stroke-linecap="round" stroke-linejoin="round"/>
</svg>
